<?xml version="1.0" standalone="no"?>
<!DOCTYPE svg PUBLIC "-//W3C//DTD SVG 20010904//EN"
 "http://www.w3.org/TR/2001/REC-SVG-20010904/DTD/svg10.dtd">
<svg version="1.0" xmlns="http://www.w3.org/2000/svg"
 width="484.000000pt" height="293.000000pt" viewBox="0 0 484.000000 293.000000"
 preserveAspectRatio="xMidYMid meet">

<g transform="translate(0.000000,293.000000) scale(0.100000,-0.100000)"
fill="#000000" stroke="none">
<path d="M2455 2769 c-3 -13 -5 -33 -4 -44 1 -11 1 -59 1 -107 -3 -126 -22
-113 -22 14 0 97 -13 131 -17 45 -1 -23 -4 -58 -7 -77 -3 -19 -6 -44 -7 -55
-1 -11 -5 3 -9 30 -4 28 -7 -37 -7 -150 1 -127 3 -169 6 -115 7 95 21 79 21
-25 0 -74 19 -56 21 20 l2 50 7 -50 c5 -27 9 -75 10 -105 2 -47 3 -51 10 -25
4 17 8 54 9 83 0 28 5 52 11 52 10 0 14 -14 25 -82 3 -21 10 -38 14 -38 9 0
21 105 21 185 0 36 3 46 10 35 5 -8 10 -27 10 -42 0 -40 18 -35 26 7 7 38 20
46 27 18 4 -15 6 -15 12 4 4 13 11 20 16 17 5 -3 9 4 9 15 0 12 7 21 15 21 10
0 15 -11 16 -37 l2 -38 6 39 6 40 60 -3 c46 -1 63 -6 74 -22 13 -18 14 -18 27
-2 9 12 13 14 14 5 0 -9 8 -7 29 7 30 21 52 15 64 -19 4 -10 6 -7 6 8 1 24 12
27 42 12 13 -7 19 -7 19 0 0 5 7 10 16 10 9 0 14 6 11 13 -2 7 -20 12 -43 12
-27 0 -43 6 -53 19 -12 17 -15 17 -23 2 -12 -21 -45 -21 -51 2 -4 14 -5 15 -6
1 -1 -17 -41 -34 -41 -18 0 6 -7 6 -17 1 -10 -5 -44 -10 -75 -11 l-57 -2 -4
38 -4 38 -1 -37 c-3 -55 -30 -51 -39 4 -3 24 -8 37 -11 29 -3 -8 -12 -22 -21
-33 -15 -18 -17 -17 -27 29 l-11 48 -14 -50 c-13 -49 -13 -49 -20 -20 -4 17
-7 76 -8 133 -2 153 -30 126 -32 -32 -1 -67 -1 -69 -14 -41 -7 16 -13 70 -14
119 -2 94 -6 115 -16 75z"/>
<path d="M2287 2678 c-5 -27 -6 -51 -3 -56 2 -4 1 -23 -4 -42 l-8 -35 -1 30
c-1 23 -3 27 -11 15 -5 -8 -10 -28 -10 -44 0 -24 -2 -27 -15 -16 -13 11 -15 6
-16 -31 -1 -41 -2 -42 -9 -14 -4 17 -8 24 -9 18 0 -7 -8 -13 -16 -13 -19 0
-35 -40 -35 -88 l1 -37 14 30 13 30 2 -30 c1 -28 2 -29 14 -12 10 13 15 15 19
5 3 -9 9 -8 21 7 15 19 15 17 17 -35 1 -43 3 -49 9 -30 7 21 8 17 9 -21 1 -25
5 -49 10 -55 5 -5 11 -20 14 -34 2 -14 5 -4 6 23 0 29 5 46 11 42 6 -4 10 15
10 49 0 57 13 75 24 34 3 -13 6 -50 7 -83 l2 -60 7 65 c4 36 8 121 8 190 0
105 -2 118 -10 80 -14 -67 -28 -73 -28 -13 0 32 -6 57 -14 66 -8 8 -16 36 -18
63 l-3 49 -8 -47z"/>
<path d="M2031 2590 c-1 -25 -5 -63 -9 -85 -7 -36 -9 -37 -14 -16 -7 24 -8 24
-27 7 -20 -18 -21 -18 -30 8 -14 34 -39 34 -43 -1 l-4 -28 -14 30 -13 30 -6
-30 c-3 -16 -11 -30 -16 -30 -10 0 -15 -43 -7 -59 2 -4 8 -2 13 5 6 10 9 5 9
-14 0 -19 4 -27 13 -24 6 2 20 -5 30 -16 9 -11 17 -15 17 -10 0 17 31 25 46
12 11 -9 14 -7 15 12 0 20 2 21 8 6 8 -22 21 -24 32 -5 6 8 9 1 9 -21 0 -24 3
-32 10 -25 6 6 13 62 15 125 5 94 3 110 -7 89 -11 -24 -12 -22 -18 30 l-7 55
-2 -45z"/>
<path d="M2101 2453 c-1 -92 3 -154 9 -158 12 -7 12 198 1 265 -6 33 -9 3 -10
-107z"/>
<path d="M1151 2521 c-1 -34 -4 -42 -16 -37 -8 3 -15 1 -15 -5 0 -6 -8 -9 -17
-8 -35 3 -43 -1 -42 -23 0 -13 3 -18 5 -11 4 8 14 9 34 3 16 -4 31 -6 34 -3 2
3 8 -12 12 -33 l7 -37 11 34 c9 27 17 34 41 37 47 6 114 6 185 2 36 -2 71 0
79 4 10 7 23 0 43 -23 15 -17 28 -27 28 -22 0 5 9 13 20 16 11 3 20 12 20 19
0 10 17 13 63 12 61 -2 74 -8 123 -54 12 -11 14 -9 14 15 0 22 2 25 10 13 8
-12 10 -12 10 5 1 16 4 13 15 -10 13 -29 13 -28 13 35 0 36 -2 57 -5 48 -6
-24 -33 -23 -33 0 0 31 -12 33 -33 6 -10 -14 -26 -23 -33 -20 -8 3 -14 2 -14
-3 0 -11 -81 -20 -116 -13 -17 3 -31 15 -40 36 -11 25 -13 27 -14 10 0 -27
-62 -55 -100 -44 -14 3 -36 4 -50 0 -14 -4 -33 -3 -42 2 -11 5 -18 5 -18 -1 0
-5 -21 -7 -47 -5 -27 2 -61 5 -78 7 -26 2 -31 7 -42 47 l-11 45 -1 -44z"/>
<path d="M3083 2489 c-7 -17 -7 -32 0 -49 8 -20 11 -21 14 -8 2 9 12 18 20 20
15 3 15 5 1 18 -8 9 -17 21 -19 29 -3 9 -8 5 -16 -10z"/>
<path d="M1001 2490 c-1 -11 -14 -15 -49 -17 -26 0 -75 -3 -110 -5 -34 -2 -68
-1 -74 3 -7 4 -16 5 -21 2 -5 -3 -40 -5 -78 -5 -48 0 -69 -4 -69 -12 0 -9 15
-11 51 -8 27 2 63 -1 79 -7 16 -5 32 -6 34 -2 5 7 105 8 131 1 6 -1 15 -1 20
0 36 10 62 3 77 -20 16 -22 18 -23 18 -6 0 11 3 16 7 13 10 -11 33 14 33 35 0
15 -5 19 -19 15 -13 -3 -21 1 -24 12 -4 12 -5 13 -6 1z"/>
<path d="M560 2460 c0 -5 7 -10 15 -10 8 0 15 5 15 10 0 6 -7 10 -15 10 -8 0
-15 -4 -15 -10z"/>
<path d="M3145 2460 c3 -5 13 -10 21 -10 8 0 12 5 9 10 -3 6 -13 10 -21 10 -8
0 -12 -4 -9 -10z"/>
<path d="M3298 2260 c-338 -57 -634 -335 -664 -623 -13 -127 41 -293 137 -423
66 -89 241 -233 312 -257 9 -3 11 -74 9 -265 -1 -144 0 -262 3 -262 4 0 128
101 276 224 l270 223 122 6 c235 10 417 93 575 262 193 206 240 446 133 670
-107 225 -334 395 -591 441 -83 15 -500 17 -582 4z m353 -290 c113 -34 191
-112 225 -225 24 -80 29 -218 10 -299 -31 -130 -88 -204 -196 -255 -49 -23
-67 -26 -170 -26 -135 0 -179 16 -258 89 -89 84 -130 225 -112 389 21 180 116
300 267 336 67 16 167 12 234 -9z m505 -36 c-3 -26 -6 -147 -6 -270 l0 -224
-75 0 -75 0 0 203 c0 111 -3 232 -7 270 l-6 67 88 0 88 0 -7 -46z m-41 -598
c59 -25 74 -93 32 -142 -20 -23 -32 -27 -72 -27 -40 0 -52 4 -72 27 -41 48
-27 117 30 141 40 18 41 18 82 1z"/>
<path d="M3445 1838 c-44 -15 -92 -66 -112 -117 -13 -34 -18 -75 -18 -152 0
-98 2 -110 30 -164 38 -74 90 -105 174 -105 144 1 211 89 211 275 0 185 -72
277 -215 274 -22 0 -53 -5 -70 -11z"/>
<path d="M948 2024 c-35 -18 -48 -43 -48 -89 0 -47 13 -71 50 -90 35 -18 60
-19 95 -3 75 34 70 160 -6 187 -41 14 -58 13 -91 -5z"/>
<path d="M330 1545 l0 -395 270 0 270 0 0 85 0 85 -165 0 -165 0 0 310 0 310
-105 0 -105 0 0 -395z"/>
<path d="M1519 1761 c-41 -13 -72 -31 -106 -64 l-33 -31 0 47 0 47 -95 0 -95
0 0 -305 0 -305 94 0 94 0 4 178 c3 192 8 212 63 248 30 20 86 22 117 5 48
-25 53 -44 56 -243 l4 -188 95 0 94 0 -3 233 c-3 218 -4 235 -25 274 -48 88
-163 134 -264 104z"/>
<path d="M2035 1761 c-70 -18 -135 -72 -171 -141 -26 -52 -31 -193 -9 -260 52
-155 235 -224 369 -139 l46 29 0 -48 c0 -27 -7 -57 -16 -70 -43 -61 -159 -74
-259 -28 -32 14 -59 26 -61 26 -2 0 -18 -28 -35 -62 l-31 -61 23 -19 c45 -34
157 -63 249 -62 117 0 179 23 246 88 80 78 84 100 84 453 l0 293 -100 0 -100
0 0 -35 0 -36 -22 22 c-45 43 -148 67 -213 50z m192 -175 c34 -31 37 -38 41
-100 4 -59 1 -71 -22 -106 -53 -80 -169 -73 -210 15 -50 104 10 225 110 225
36 0 51 -6 81 -34z"/>
<path d="M900 1455 l0 -306 98 3 97 3 0 300 0 300 -97 3 -98 3 0 -306z"/>
<path d="M733 692 c-19 -12 -35 -64 -23 -76 5 -5 10 -32 10 -58 0 -36 4 -48
15 -48 12 0 15 13 15 55 0 48 2 55 20 55 11 0 20 5 20 10 0 6 -9 10 -20 10
-11 0 -20 7 -20 15 0 8 9 15 20 15 11 0 20 7 20 15 0 16 -36 20 -57 7z"/>
<path d="M1157 694 c-4 -4 -7 -18 -7 -30 0 -19 -5 -23 -31 -22 -39 1 -59 -23
-59 -68 0 -47 21 -63 81 -62 l50 0 -3 91 c-3 83 -12 110 -31 91z m-9 -117 c3
-34 1 -37 -22 -37 -30 0 -42 29 -26 60 18 34 44 21 48 -23z"/>
<path d="M2300 665 c0 -33 -2 -35 -21 -25 -27 15 -69 -11 -70 -43 -4 -71 9
-86 72 -85 l49 1 0 94 c0 76 -3 93 -15 93 -11 0 -15 -11 -15 -35z m-10 -59 c6
-8 10 -25 8 -38 -2 -17 -10 -23 -28 -23 -18 0 -26 6 -28 23 -3 22 13 52 28 52
4 0 13 -7 20 -14z"/>
<path d="M415 665 c-34 -33 -35 -102 -2 -133 32 -30 81 -29 112 3 54 53 18
155 -55 155 -19 0 -40 -9 -55 -25z m83 -17 c7 -7 12 -28 12 -48 0 -41 -14 -60
-47 -60 -40 0 -56 57 -27 98 17 24 43 29 62 10z"/>
<path d="M1290 600 c0 -72 3 -90 14 -90 9 0 16 12 18 33 3 28 7 33 38 37 42 6
64 40 48 76 -11 24 -35 34 -85 34 l-33 0 0 -90z m88 33 c2 -14 -3 -23 -17 -28
-28 -9 -41 1 -41 31 0 22 4 25 28 22 19 -2 28 -9 30 -25z"/>
<path d="M1730 656 c0 -8 -6 -17 -12 -20 -10 -5 -10 -7 0 -12 7 -3 12 -24 12
-48 0 -23 5 -47 12 -54 17 -17 58 -15 58 3 0 8 -9 15 -20 15 -17 0 -20 7 -20
40 0 33 3 40 20 40 11 0 20 5 20 10 0 6 -9 10 -20 10 -11 0 -20 7 -20 15 0 8
-7 15 -15 15 -8 0 -15 -6 -15 -14z"/>
<path d="M2670 656 c0 -8 -6 -17 -12 -20 -10 -5 -10 -7 0 -12 7 -3 12 -24 12
-48 0 -47 13 -66 46 -66 31 0 41 20 15 27 -21 5 -23 10 -23 38 0 36 3 45 17
45 8 0 15 5 15 10 0 6 -6 10 -14 10 -8 0 -16 7 -20 15 -7 19 -36 20 -36 1z"/>
<path d="M1910 651 c0 -5 -13 -9 -29 -9 -43 1 -50 -8 -50 -68 1 -31 -5 -61
-12 -70 -11 -14 -10 -19 10 -35 27 -22 50 -24 86 -7 48 22 24 78 -34 78 -12 0
-21 5 -21 10 0 6 11 10 24 10 13 0 28 6 34 13 12 15 13 87 1 87 -5 0 -9 -4 -9
-9z m-15 -51 c0 -8 -8 -16 -17 -18 -13 -2 -18 3 -18 18 0 15 5 20 18 18 9 -2
17 -10 17 -18z m6 -105 c0 -5 -7 -12 -16 -13 -23 -5 -47 6 -40 19 8 13 56 8
56 -6z"/>
<path d="M850 642 c-74 -24 -62 -132 15 -132 39 0 65 28 65 71 0 38 -45 72
-80 61z m40 -42 c16 -30 3 -60 -25 -60 -15 0 -26 7 -30 20 -8 24 10 60 30 60
8 0 19 -9 25 -20z"/>
<path d="M1490 642 c-74 -24 -62 -132 15 -132 39 0 65 28 65 71 0 38 -45 72
-80 61z m40 -42 c16 -30 3 -60 -25 -60 -15 0 -26 7 -30 20 -8 24 10 60 30 60
8 0 19 -9 25 -20z"/>
<path d="M1610 630 c-16 -16 -18 -25 -10 -40 6 -11 16 -20 23 -20 21 0 40 -17
33 -29 -5 -8 -13 -8 -28 0 -15 8 -23 8 -31 0 -16 -16 8 -31 50 -31 59 0 68 59
12 79 -36 12 -40 36 -5 27 34 -8 43 12 11 24 -34 13 -32 13 -55 -10z"/>
<path d="M2105 642 c-27 -5 -39 -18 -30 -32 5 -8 10 -8 21 1 16 13 48 4 39
-11 -3 -5 -14 -10 -24 -10 -29 0 -57 -38 -45 -58 15 -23 124 -28 124 -6 0 8
-4 14 -9 14 -6 0 -11 21 -13 46 -3 50 -21 65 -63 56z m35 -87 c0 -16 -27 -32
-37 -22 -3 4 -3 13 0 22 8 20 37 20 37 0z"/>
<path d="M2548 638 c-28 -10 -35 -22 -19 -33 5 -3 12 -1 16 5 9 15 45 12 45
-3 0 -7 -15 -17 -32 -22 -28 -8 -33 -15 -33 -40 0 -24 5 -31 23 -33 13 -2 30
2 38 8 10 9 14 9 14 1 0 -6 9 -11 20 -11 21 0 27 19 11 36 -5 5 -11 27 -13 48
-3 45 -26 59 -70 44z m42 -82 c0 -8 -5 -18 -11 -22 -14 -8 -33 11 -25 25 10
16 36 13 36 -3z"/>
<path d="M2803 640 c-25 -10 -43 -39 -43 -69 0 -48 80 -82 110 -46 13 16 11
17 -34 19 -48 2 -45 26 3 26 37 0 41 3 41 24 0 14 -10 32 -22 40 -25 18 -25
18 -55 6z m45 -37 c2 -8 -6 -13 -22 -13 -25 0 -33 10 -19 24 10 10 36 3 41
-11z"/>
<path d="M588 611 c15 -28 15 -32 -1 -65 -14 -31 -14 -36 -2 -36 8 0 20 9 27
20 7 11 16 20 20 20 4 0 10 -9 13 -20 4 -11 15 -20 26 -20 19 0 19 1 3 31 -15
30 -15 43 1 82 5 12 2 17 -8 17 -9 0 -21 -8 -27 -17 -10 -17 -10 -17 -20 0 -6
9 -20 17 -30 17 -18 0 -18 -1 -2 -29z"/>
<path d="M960 573 c0 -56 2 -64 18 -61 9 2 18 13 18 26 1 12 2 33 3 47 1 18 7
25 21 25 11 0 20 6 20 14 0 9 -13 13 -40 13 l-40 0 0 -64z"/>
<path d="M1970 574 c0 -49 3 -64 14 -64 11 0 16 14 18 48 3 40 6 47 26 50 40
6 26 31 -18 30 l-40 0 0 -64z"/>
<path d="M2370 586 c0 -31 5 -58 13 -64 6 -6 33 -10 60 -10 l47 1 0 64 c0 56
-2 63 -20 63 -17 0 -20 -7 -20 -51 0 -47 -2 -50 -22 -47 -20 3 -23 10 -26 51
-2 33 -7 47 -18 47 -10 0 -14 -14 -14 -54z"/>
<path d="M892 338 c-7 -7 -12 -20 -12 -29 0 -10 -6 -20 -12 -23 -10 -5 -10 -7
0 -12 7 -3 12 -26 12 -60 0 -41 4 -54 15 -54 12 0 15 13 15 55 0 48 2 55 20
55 11 0 20 5 20 10 0 6 -9 10 -20 10 -11 0 -20 7 -20 15 0 8 9 15 20 15 11 0
20 7 20 15 0 18 -41 20 -58 3z"/>
<path d="M415 315 c-34 -33 -35 -102 -2 -133 32 -30 90 -30 111 0 21 29 4 48
-22 25 -28 -25 -60 -21 -74 8 -23 51 21 113 62 87 26 -16 40 -15 40 3 0 39
-80 46 -115 10z"/>
<path d="M605 292 c-28 -5 -45 -31 -45 -67 0 -78 108 -90 125 -15 12 52 -27
92 -80 82z m33 -31 c8 -5 12 -21 10 -37 -2 -23 -8 -29 -28 -29 -18 0 -26 6
-28 23 -3 22 13 52 27 52 3 0 12 -4 19 -9z"/>
<path d="M786 293 c-3 -3 -19 -6 -36 -5 l-30 1 0 -65 c0 -50 3 -64 15 -64 11
0 15 12 15 44 0 26 6 48 15 56 25 20 45 -5 45 -56 0 -32 4 -44 15 -44 11 0 15
12 15 53 0 28 -4 57 -8 63 -9 14 -38 24 -46 17z"/>
<path d="M1000 287 c-31 -16 -41 -85 -15 -111 25 -25 95 -19 95 9 0 8 -13 12
-36 11 -22 -1 -39 4 -41 12 -3 8 9 12 41 12 38 0 46 3 46 18 0 43 -49 70 -90
49z m48 -34 c2 -8 -6 -13 -22 -13 -25 0 -33 10 -19 24 10 10 36 3 41 -11z"/>
<path d="M1250 287 c-31 -16 -41 -85 -15 -111 25 -25 95 -19 95 9 0 8 -13 12
-36 11 -22 -1 -39 4 -41 12 -3 8 9 12 41 12 38 0 46 3 46 18 0 43 -49 70 -90
49z m50 -32 c0 -9 -9 -15 -25 -15 -24 0 -32 10 -18 23 12 13 43 7 43 -8z"/>
<path d="M1421 291 c-7 -5 -22 -6 -32 -4 -17 5 -19 -1 -19 -61 0 -52 3 -66 15
-66 11 0 15 12 15 44 0 44 19 74 40 61 5 -3 10 -28 10 -56 0 -42 3 -49 20 -49
17 0 20 7 20 50 0 37 -5 55 -20 70 -22 22 -29 24 -49 11z"/>
<path d="M1548 286 c-30 -15 -38 -85 -13 -110 20 -20 68 -21 85 -1 17 21 4 37
-19 23 -26 -16 -51 -3 -51 25 0 34 25 54 45 37 11 -9 19 -10 27 -2 25 25 -34
48 -74 28z"/>
<path d="M1690 287 c-61 -31 -47 -119 21 -125 23 -2 40 2 49 12 13 17 11 18
-34 20 -48 2 -45 26 3 26 37 0 41 3 41 24 0 14 -10 32 -22 40 -27 19 -26 19
-58 3z m48 -34 c2 -8 -6 -13 -22 -13 -25 0 -33 10 -19 24 10 10 36 3 41 -11z"/>
<path d="M1120 224 c0 -50 3 -64 15 -64 11 0 15 12 15 45 0 39 3 47 25 55 38
14 30 29 -15 28 l-40 0 0 -64z"/>
</g>
</svg>
