<?xml version="1.0" standalone="no"?>
<!DOCTYPE svg PUBLIC "-//W3C//DTD SVG 20010904//EN"
 "http://www.w3.org/TR/2001/REC-SVG-20010904/DTD/svg10.dtd">
<svg version="1.0" xmlns="http://www.w3.org/2000/svg"
 width="548.000000pt" height="222.000000pt" viewBox="0 0 548.000000 222.000000"
 preserveAspectRatio="xMidYMid meet">

<g transform="translate(0.000000,222.000000) scale(0.100000,-0.100000)"
fill="#000000" stroke="none">
<path d="M1297 2129 c-27 -4 -72 -19 -100 -33 -68 -34 -157 -106 -157 -128 0
-28 18 -21 72 27 77 69 148 99 238 99 60 1 85 -4 125 -23 106 -52 209 -193
265 -363 23 -71 36 -90 46 -64 9 23 -22 115 -73 217 -98 198 -250 296 -416
268z"/>
<path d="M1287 1916 c-163 -60 -302 -297 -382 -650 -13 -60 -27 -147 -31 -193
-6 -72 -5 -83 9 -83 10 0 18 11 21 33 3 17 12 83 21 144 36 254 139 504 259
632 93 98 166 115 250 60 33 -22 50 -29 58 -21 14 14 4 28 -45 56 -54 32 -112
40 -160 22z"/>
<path d="M862 1722 c-62 -123 -132 -321 -135 -382 -2 -41 15 -54 25 -19 48
166 92 285 145 389 35 68 63 126 63 127 0 2 -9 3 -19 3 -14 0 -34 -30 -79
-118z"/>
<path d="M659 1744 c-37 -80 -41 -104 -18 -104 12 0 90 170 83 181 -13 21 -28
4 -65 -77z"/>
<path d="M1259 1668 c-52 -72 -129 -251 -129 -300 0 -10 6 -18 14 -18 9 0 23
26 36 66 25 77 82 195 117 241 23 30 24 53 2 53 -5 0 -23 -19 -40 -42z"/>
<path d="M571 1523 c-59 -203 -80 -331 -88 -543 -8 -244 16 -429 83 -632 16
-49 31 -78 40 -78 19 0 18 16 -6 84 -109 319 -110 788 0 1136 24 77 25 100 5
100 -9 0 -21 -24 -34 -67z"/>
<path d="M381 1473 c-27 -94 -29 -117 -10 -121 12 -2 21 17 37 83 12 48 20 91
17 96 -14 21 -25 5 -44 -58z"/>
<path d="M342 1278 c-19 -24 -35 -263 -28 -433 6 -146 10 -168 33 -166 4 1 6
94 5 209 -2 124 1 242 8 295 12 89 6 123 -18 95z"/>
<path d="M1106 1272 c-14 -23 -47 -271 -52 -397 -10 -210 18 -381 70 -442 33
-38 77 -36 121 7 40 39 99 145 91 166 -10 27 -26 14 -50 -39 -30 -70 -83 -129
-109 -125 -32 5 -65 81 -78 178 -15 109 -6 395 16 515 9 50 17 101 18 114 2
24 -16 40 -27 23z"/>
<path d="M684 1138 c-4 -7 -10 -103 -12 -213 -4 -222 8 -334 53 -490 28 -95
39 -115 55 -99 6 6 1 37 -15 87 -51 166 -71 394 -55 641 3 55 1 80 -7 83 -6 2
-15 -2 -19 -9z"/>
<path d="M2252 679 c-32 -12 -28 -45 8 -64 17 -9 30 -22 30 -30 0 -17 -31 -28
-55 -19 -13 5 -16 4 -11 -4 10 -17 52 -15 70 4 24 24 18 42 -21 63 -34 17 -29
39 10 43 25 2 28 4 12 9 -12 3 -31 2 -43 -2z"/>
<path d="M2748 684 c-5 -4 -7 -37 -7 -73 l1 -66 11 43 c8 35 14 42 33 42 21 0
24 -5 25 -42 l1 -43 9 33 c13 44 -4 76 -36 68 -20 -5 -24 -2 -27 20 -2 14 -6
22 -10 18z"/>
<path d="M3440 664 c0 -21 -4 -24 -20 -19 -31 10 -60 -12 -60 -44 0 -36 18
-51 58 -48 31 2 32 3 32 54 0 28 3 58 6 67 3 9 1 16 -5 16 -6 0 -11 -12 -11
-26z m0 -59 c0 -14 -26 -45 -39 -45 -11 0 -31 23 -31 36 0 7 7 20 16 28 18 18
54 6 54 -19z"/>
<path d="M2896 649 c-3 -17 -6 -48 -5 -68 l1 -36 10 32 c8 23 17 33 36 35 57
7 55 68 -1 68 -31 0 -35 -4 -41 -31z m67 7 c7 -17 -11 -36 -35 -36 -13 0 -18
8 -18 25 0 20 5 25 24 25 13 0 26 -6 29 -14z"/>
<path d="M3795 619 c-6 -53 -3 -81 9 -68 7 8 12 129 5 129 -4 0 -10 -27 -14
-61z"/>
<path d="M3942 657 c-5 -7 -7 -32 -3 -57 5 -34 11 -45 26 -48 18 -2 18 -2 3 8
-23 14 -23 56 -1 68 15 9 15 11 1 26 -12 12 -18 13 -26 3z"/>
<path d="M4351 653 c-11 -12 -11 -17 -1 -23 7 -4 9 -16 6 -27 -9 -27 2 -53 22
-53 12 0 13 3 4 12 -18 18 -15 68 3 68 8 0 15 5 15 10 0 6 -6 10 -14 10 -8 0
-16 4 -18 9 -1 5 -9 2 -17 -6z"/>
<path d="M2326 601 c-8 -62 -8 -81 4 -81 6 0 10 8 10 19 0 14 6 17 23 14 29
-6 57 20 57 51 0 31 -20 46 -57 43 -28 -2 -31 -6 -37 -46z m78 13 c12 -31 -18
-60 -49 -48 -8 4 -15 17 -15 30 0 39 50 53 64 18z"/>
<path d="M2458 638 c-25 -20 -31 -54 -13 -72 18 -17 65 -22 65 -6 0 5 -7 7
-15 4 -16 -6 -45 12 -45 27 0 5 16 9 35 9 28 0 35 4 35 19 0 29 -35 40 -62 19z
m36 -4 c27 -10 18 -24 -15 -24 -27 0 -30 2 -19 15 14 17 13 17 34 9z"/>
<path d="M2558 639 c-21 -12 -24 -59 -6 -77 7 -7 23 -11 38 -11 20 1 21 2 5 6
-54 13 -53 43 1 43 37 0 43 10 18 34 -18 18 -32 20 -56 5z m50 -16 c2 -9 -7
-13 -28 -13 -28 0 -31 2 -20 15 15 18 41 16 48 -2z"/>
<path d="M2660 630 c-11 -11 -20 -26 -20 -34 0 -23 29 -46 58 -45 26 1 25 1
-5 10 -26 7 -33 15 -33 34 0 25 32 51 50 40 6 -3 10 -1 10 4 0 18 -39 12 -60
-9z"/>
<path d="M2997 610 c-3 -25 -2 -49 4 -54 5 -6 9 4 9 27 0 27 6 39 21 47 11 7
18 14 15 17 -3 3 -12 1 -20 -6 -11 -9 -15 -9 -18 1 -3 7 -7 -7 -11 -32z"/>
<path d="M3078 639 c-22 -13 -24 -62 -2 -79 25 -21 68 -1 72 33 6 48 -29 71
-70 46z m52 -14 c25 -30 -16 -79 -46 -54 -19 16 -17 46 4 58 23 14 28 13 42
-4z"/>
<path d="M3183 643 c-20 -7 -15 -29 9 -45 23 -15 17 -43 -8 -34 -8 3 -14 1
-14 -4 0 -16 36 -11 51 6 11 13 8 19 -16 38 -19 15 -24 25 -17 30 7 4 17 4 22
1 6 -3 10 -1 10 4 0 11 -16 13 -37 4z"/>
<path d="M3257 632 c-32 -35 -15 -82 28 -82 25 0 55 29 55 53 0 21 -27 47 -49
47 -10 0 -25 -8 -34 -18z m47 2 c20 -8 21 -48 1 -64 -33 -27 -64 27 -33 58 14
14 12 14 32 6z"/>
<path d="M3473 638 c32 -88 32 -89 14 -103 -21 -15 -22 -26 -2 -18 17 6 80
122 71 130 -2 3 -13 -12 -24 -33 l-20 -39 -15 38 c-9 20 -19 37 -23 37 -3 0
-4 -6 -1 -12z"/>
<path d="M3617 607 c-5 -27 -6 -51 -3 -55 12 -12 17 7 14 54 l-3 49 -8 -48z"/>
<path d="M3651 595 l1 -50 10 40 c6 22 15 43 21 47 22 14 37 -5 37 -46 0 -30
3 -37 10 -26 14 21 12 67 -2 77 -7 4 -28 8 -45 8 -33 0 -33 0 -32 -50z"/>
<path d="M3831 595 l1 -50 10 40 c6 22 15 43 21 47 21 13 37 -5 37 -44 0 -23
4 -37 10 -33 14 9 12 72 -2 82 -7 4 -28 8 -45 8 -33 0 -33 0 -32 -50z"/>
<path d="M4006 634 c-19 -18 -21 -55 -4 -72 14 -14 68 -16 68 -3 0 5 -9 7 -20
4 -22 -6 -53 14 -44 28 3 5 21 9 40 9 35 0 44 16 22 38 -17 17 -44 15 -62 -4z
m52 -12 c2 -7 -7 -12 -22 -12 -27 0 -35 15 -13 23 17 7 30 3 35 -11z"/>
<path d="M4113 642 c-20 -3 -23 -9 -23 -50 0 -34 3 -43 10 -32 5 8 10 25 10
37 0 12 8 26 17 32 22 12 15 18 -14 13z"/>
<path d="M4165 640 c-4 -6 3 -9 16 -7 12 1 24 -4 26 -10 3 -8 -4 -13 -15 -13
-25 0 -46 -25 -38 -45 4 -11 16 -15 38 -12 29 3 33 7 36 36 2 18 -2 39 -9 47
-13 16 -45 19 -54 4z m45 -54 c0 -19 -17 -29 -37 -22 -12 5 -13 9 -3 21 16 19
40 19 40 1z"/>
<path d="M4268 639 c-21 -12 -24 -59 -6 -77 14 -14 58 -16 58 -2 0 5 -7 7 -15
4 -18 -7 -45 12 -45 32 0 19 31 46 46 40 8 -3 14 -1 14 4 0 13 -30 12 -52 -1z"/>
<path d="M4417 607 c-5 -27 -6 -51 -3 -55 12 -12 17 7 14 54 l-3 49 -8 -48z"/>
<path d="M4467 632 c-32 -35 -15 -82 28 -82 25 0 55 29 55 53 0 21 -27 47 -49
47 -10 0 -25 -8 -34 -18z m47 2 c20 -8 21 -48 1 -64 -33 -27 -64 27 -33 58 14
14 12 14 32 6z"/>
<path d="M4571 595 l1 -50 8 39 c13 69 56 71 63 3 4 -36 4 -35 3 8 l-1 50 -37
0 -38 1 1 -51z"/>
<path d="M344 579 c8 -50 21 -68 36 -53 17 17 -2 88 -24 92 -17 4 -18 -1 -12
-39z"/>
<path d="M1614 403 c-108 -179 -217 -299 -318 -348 -73 -36 -163 -44 -226 -20
-57 21 -82 23 -87 7 -9 -25 62 -42 174 -42 124 0 170 16 260 90 114 94 276
340 223 340 -5 0 -17 -12 -26 -27z"/>
</g>
</svg>
